<svg xmlns="http://www.w3.org/2000/svg" viewBox="0 0 32 32">
  <path fill="currentColor" d="M19.11 17.53c-.27-.14-1.57-.77-1.82-.86-.25-.09-.43-.14-.61.14-.18.27-.7.86-.86 1.04-.16.18-.32.2-.59.07-.27-.14-1.15-.42-2.19-1.35-.81-.72-1.35-1.62-1.51-1.89-.16-.27-.02-.42.12-.56.12-.12.27-.32.41-.48.14-.16.18-.27.27-.45.09-.18.05-.34-.02-.48-.07-.14-.61-1.47-.84-2.02-.22-.52-.45-.45-.61-.46h-.52c-.18 0-.48.07-.73.34-.25.27-.95.93-.95 2.27 0 1.34.98 2.63 1.12 2.81.14.18 1.93 2.95 4.67 4.13.65.28 1.16.45 1.56.58.65.21 1.24.18 1.71.11.52-.08 1.57-.64 1.79-1.26.22-.61.22-1.13.16-1.26-.07-.13-.25-.2-.52-.34z"></path>
  <path fill="currentColor" d="M26.66 5.34C23.9 2.58 20.23 1.06 16.34 1.06 8.38 1.06 1.9 7.54 1.9 15.5c0 2.54.66 5.02 1.92 7.21L1.8 30.94l8.41-1.97c2.13 1.16 4.53 1.77 6.97 1.77h.01c7.96 0 14.44-6.48 14.44-14.44 0-3.89-1.52-7.56-4.28-10.96zM16.35 28.3h-.01c-2.21 0-4.37-.6-6.24-1.72l-.45-.27-4.99 1.17 1.33-4.86-.29-.5c-1.22-2.04-1.87-4.38-1.87-6.77 0-7.02 5.71-12.73 12.73-12.73 3.4 0 6.6 1.32 9 3.73 2.4 2.4 3.72 5.6 3.72 9 0 7.02-5.71 12.73-12.73 12.73z"></path>
</svg>